<?xml version="1.0" encoding="UTF-8"?>
<svg id="_レイヤー_2" data-name="レイヤー 2" xmlns="http://www.w3.org/2000/svg" viewBox="0 0 214 46.73">
  <defs>
    <style>
      .cls-1 {
        fill: #2657c4;
      }

      .cls-1, .cls-2, .cls-3 {
        stroke-width: 0px;
      }

      .cls-2 {
        fill: #070707;
      }

      .cls-3 {
        fill: #edbf4f;
      }
    </style>
  </defs>
  <g id="_ロゴ" data-name="ロゴ">
    <g>
      <g>
        <path class="cls-2" d="M75.22,7.44c-8.2,0-13.84,5.86-13.84,15.94,0,6.23,2.15,10.94,5.79,13.6.35.25.74.5,1.13.76,1.99,1.21,4.33,1.81,6.93,1.81s4.91-.6,6.89-1.81c.39-.26.75-.51,1.14-.76,3.63-2.66,5.79-7.38,5.79-13.6,0-10.05-5.64-15.94-13.81-15.94ZM75.2,34.29c-4.62,0-7.61-4.26-7.61-10.91s2.91-10.71,7.61-10.71,7.62,4.11,7.62,10.71-2.98,10.91-7.62,10.91Z"/>
        <path class="cls-2" d="M106.26,15.31c-2.71,0-5.14,1.57-6.7,2.92l-.69-2.35h-4.75v30.06h5.83v-9.25c1.81,1.64,3.64,2.47,5.59,2.47,4.78,0,9.61-4.23,9.61-12.27,0-7.16-3.42-11.57-8.89-11.57ZM104.18,34.4c-1.01,0-2.6-.32-4.24-1.76v-10.17c1.64-1.67,3.05-2.4,4.58-2.4,3.08,0,4.64,2.33,4.64,6.88,0,6.9-3.81,7.45-4.98,7.45Z"/>
        <path class="cls-2" d="M133.49,38.32c-1.25.42-2.78.83-4.72.83-4.93,0-7.42-2.85-7.42-8.5v-10.2h-3.23v-4.3l3.47-.28h.07l.69-6.17h4.82v6.17h5.66v4.58h-5.66v10.2c0,2.6,1.08,3.92,3.19,3.92.73,0,1.6-.21,2.19-.45l.94,4.2Z"/>
        <polygon class="cls-2" points="161.51 8.12 161.51 38.51 155.68 38.51 155.68 25.33 144.06 25.33 144.06 38.51 138.19 38.51 138.19 8.12 144.06 8.12 144.06 20.18 155.68 20.18 155.68 8.12 161.51 8.12"/>
        <path class="cls-2" d="M187.04,15.88v22.74h-5.07v-.1l-.45-3.19h-.03c-2.26,2.67-4.51,3.85-7.32,3.85-4.72,0-7.15-3.12-7.15-9.23v-14.06h6.18v13.26c0,3.4.87,4.72,3.12,4.72,1.77,0,2.98-.76,4.55-2.81v-15.17h6.18Z"/>
        <path class="cls-2" d="M204.98,15.16c-2.26,0-4.37,1.12-6.18,2.75v-9.79h-6v30.5h4.69l.69-2.43c1.85,1.94,4.07,2.98,6.1,2.98,4.99,0,9.72-4.51,9.72-12.38,0-7.01-3.4-11.63-9.02-11.63ZM202.93,34.35c-1,0-2.56-.32-4.2-1.77h-.04l.11-10.13-.07-.04c1.64-1.66,3.02-2.39,4.54-2.39,3.13,0,4.65,2.26,4.65,6.88,0,6.9-3.82,7.45-4.99,7.45Z"/>
      </g>
      <path class="cls-1" d="M25.53,15.88C11.45,15.88,0,27.64,0,42.11c0,2.55,2.08,4.62,4.63,4.62,2.82,0,4.47-2.38,4.62-4.62.77-10.55,7.3-16.98,16.28-16.98s15.51,6.43,16.26,16.98c.16,2.24,1.81,4.62,4.63,4.62,2.55,0,4.62-2.07,4.62-4.62,0-14.47-11.45-26.23-25.51-26.23ZM25.52,23.85c-1.85,0-3.35-1.5-3.35-3.35s1.5-3.35,3.35-3.35,3.35,1.5,3.35,3.35-1.5,3.35-3.35,3.35Z"/>
      <path class="cls-3" d="M29.6,1.69c-2.25-2.25-5.89-2.25-8.14,0-2.25,2.25-2.25,5.89,0,8.14l3.74,3.74c.18.18.47.18.65,0l3.74-3.74c2.25-2.25,2.25-5.89,0-8.14Z"/>
    </g>
  </g>
</svg>