<svg width="59" height="54" viewBox="0 0 59 54" fill="none" xmlns="http://www.w3.org/2000/svg">
<path d="M29.55 18.57C13.56 18.57 0.540001 31.93 0.540001 48.37C0.540001 51.28 2.9 53.63 5.8 53.63C9.01 53.63 10.89 50.92 11.06 48.37C11.92 36.39 19.35 29.09 29.55 29.09C39.75 29.09 47.17 36.39 48.03 48.37C48.21 50.92 50.09 53.63 53.29 53.63C56.19 53.63 58.54 51.28 58.54 48.37C58.54 31.93 45.53 18.57 29.55 18.57ZM29.54 27.62C27.44 27.62 25.74 25.92 25.74 23.82C25.74 21.72 27.44 20.02 29.54 20.02C31.64 20.02 33.35 21.72 33.35 23.82C33.35 25.92 31.64 27.62 29.54 27.62Z" fill="#2657C4"/>
<path d="M34.17 2.45C31.62 -0.0999997 27.48 -0.0999997 24.92 2.45C22.37 5 22.37 9.14 24.92 11.7L29.17 15.95C29.37 16.16 29.71 16.16 29.91 15.95L34.16 11.7C36.71 9.15 36.71 5.01 34.16 2.45H34.17Z" fill="#EDBF4F"/>
</svg>
