<?xml version="1.0" encoding="UTF-8"?>
<svg id="_レイヤー_2" data-name="レイヤー 2" xmlns="http://www.w3.org/2000/svg" viewBox="0 0 173.9 37.97">
  <defs>
    <style>
      .cls-1 {
        fill: #fff;
        stroke-width: 0px;
      }
    </style>
  </defs>
  <g id="_レイヤー_2-2" data-name=" レイヤー 2">
    <g>
      <g>
        <path class="cls-1" d="M61.13,6.05c-6.66,0-11.25,4.77-11.25,12.95,0,5.06,1.75,8.89,4.7,11.05.29.2.6.4.92.61,1.62.98,3.52,1.47,5.63,1.47s3.99-.49,5.6-1.47c.32-.21.61-.41.93-.61,2.95-2.16,4.7-5.99,4.7-11.05,0-8.16-4.59-12.95-11.23-12.95ZM61.11,27.86c-3.75,0-6.18-3.46-6.18-8.86s2.36-8.71,6.18-8.71,6.2,3.34,6.2,8.71-2.43,8.86-6.2,8.86Z"/>
        <path class="cls-1" d="M86.35,12.44c-2.2,0-4.17,1.27-5.44,2.37l-.56-1.91h-3.86v24.43h4.73v-7.52c1.47,1.33,2.95,2.01,4.54,2.01,3.89,0,7.81-3.44,7.81-9.97,0-5.81-2.78-9.4-7.22-9.4h0ZM84.66,27.95c-.82,0-2.11-.26-3.44-1.43v-8.26c1.33-1.36,2.48-1.95,3.72-1.95,2.5,0,3.77,1.9,3.77,5.59,0,5.6-3.09,6.06-4.05,6.06h0Z"/>
        <path class="cls-1" d="M108.48,31.14c-1.01.34-2.26.68-3.83.68-4,0-6.03-2.31-6.03-6.91v-8.29h-2.62v-3.5l2.82-.23h.06l.56-5.02h3.92v5.02h4.6v3.72h-4.6v8.29c0,2.11.87,3.19,2.59,3.19.59,0,1.3-.17,1.78-.37l.76,3.41h0Z"/>
        <polygon class="cls-1" points="131.24 6.6 131.24 31.3 126.51 31.3 126.51 20.58 117.06 20.58 117.06 31.3 112.3 31.3 112.3 6.6 117.06 6.6 117.06 16.4 126.51 16.4 126.51 6.6 131.24 6.6"/>
        <path class="cls-1" d="M151.99,12.9v18.47h-4.12v-.08l-.37-2.59h-.03c-1.83,2.17-3.67,3.13-5.95,3.13-3.83,0-5.81-2.54-5.81-7.5v-11.43h5.02v10.78c0,2.76.7,3.83,2.54,3.83,1.44,0,2.42-.62,3.69-2.28v-12.33h5.03Z"/>
        <path class="cls-1" d="M166.56,12.32c-1.83,0-3.55.91-5.02,2.23v-7.95h-4.87v24.78h3.81l.56-1.97c1.5,1.58,3.3,2.43,4.96,2.43,4.06,0,7.9-3.66,7.9-10.06,0-5.7-2.76-9.45-7.33-9.45h0ZM164.9,27.91c-.82,0-2.08-.26-3.41-1.44h-.03l.09-8.23-.05-.03c1.33-1.35,2.46-1.94,3.69-1.94,2.54,0,3.78,1.83,3.78,5.59,0,5.6-3.1,6.06-4.06,6.06h0Z"/>
      </g>
      <path class="cls-1" d="M20.75,12.9C9.31,12.9,0,22.45,0,34.22c0,2.08,1.69,3.75,3.76,3.75,2.29,0,3.63-1.94,3.75-3.75.62-8.57,5.93-13.8,13.23-13.8s12.6,5.22,13.22,13.8c.13,1.82,1.47,3.75,3.76,3.75,2.08,0,3.75-1.68,3.75-3.75,0-11.76-9.31-21.32-20.73-21.32h0ZM20.74,19.38c-1.5,0-2.72-1.22-2.72-2.72s1.22-2.72,2.72-2.72,2.72,1.22,2.72,2.72-1.22,2.72-2.72,2.72Z"/>
      <path class="cls-1" d="M24.05,1.37c-1.83-1.83-4.79-1.83-6.61,0-1.83,1.83-1.83,4.79,0,6.62l3.04,3.04c.15.15.38.15.53,0l3.04-3.04c1.83-1.83,1.83-4.79,0-6.62Z"/>
    </g>
  </g>
</svg>